<svg width="145" height="36" viewBox="0 0 145 36" fill="none" xmlns="http://www.w3.org/2000/svg">
<path d="M12.32 5.43985C-1.50419 17.216 6.55989 29.2268 12.32 33.7602C3.74386 31.4561 0.746496 27.4668 0.319824 25.7601C0.426494 23.4134 0.607832 17.792 0.479831 14.0799C0.351829 10.3679 7.0399 7.0932 10.3999 5.91985C7.75201 7.36418 5.46247 10.4307 4.4891 12.0332C5.47473 10.6946 10.0061 7.16291 12.32 5.43985Z" fill="url(#paint0_linear_50_524)"/>
<path d="M15.9998 19.04C9.26573 19.7002 0.506069 21.6639 0.319589 25.2801L0.450905 13.7016C0.438568 13.5618 0.44043 13.4212 0.455687 13.28L0.450905 13.7016C0.652932 15.9908 4.66257 18.0567 15.9998 19.04Z" fill="#6B2F6C"/>
<circle cx="2.88003" cy="5.11987" r="2.88003" fill="#571D52"/>
<path d="M20.68 25C20.48 25 20.38 24.9267 20.38 24.78C20.38 24.66 20.4667 24.58 20.64 24.54L21.1 24.46C21.38 24.4067 21.56 24.3333 21.64 24.24C21.7333 24.1467 21.78 23.96 21.78 23.68V11.92C21.78 11.64 21.7333 11.4533 21.64 11.36C21.56 11.2667 21.38 11.1933 21.1 11.14L20.64 11.06C20.4667 11.02 20.38 10.94 20.38 10.82C20.38 10.6733 20.48 10.6 20.68 10.6H27.4C27.7067 10.6 27.8733 10.7533 27.9 11.06L28.06 14.38C28.0867 14.6067 28 14.72 27.8 14.72C27.64 14.72 27.5467 14.6333 27.52 14.46L27.4 13.72C27.2533 12.8133 26.9533 12.1533 26.5 11.74C26.0467 11.3133 25.42 11.1 24.62 11.1C24.0867 11.1 23.7133 11.18 23.5 11.34C23.3 11.4867 23.2 11.7533 23.2 12.14V16.96C23.2 17.1467 23.2933 17.24 23.48 17.24H24.48C25.0667 17.24 25.4267 16.9267 25.56 16.3L25.76 15.3C25.8133 15.1 25.9267 15.0133 26.1 15.04C26.2467 15.0667 26.32 15.18 26.32 15.38V19.88C26.32 20.08 26.2467 20.1933 26.1 20.22C25.9267 20.2467 25.8133 20.16 25.76 19.96L25.56 18.98C25.4667 18.5133 25.3333 18.2067 25.16 18.06C25 17.9133 24.7667 17.84 24.46 17.84H23.48C23.2933 17.84 23.2 17.9333 23.2 18.12V23.14C23.2 23.62 23.32 23.9667 23.56 24.18C23.8133 24.3933 24.2667 24.5 24.92 24.5C25.5867 24.5 26.1533 24.3333 26.62 24C27.1 23.6533 27.4333 23.0133 27.62 22.08L27.86 20.9C27.9 20.7267 28 20.64 28.16 20.64C28.3467 20.64 28.4267 20.7533 28.4 20.98L28.2 24.54C28.1733 24.8467 28.0067 25 27.7 25H20.68ZM32.3542 25.18C32.2342 25.18 32.1476 25.1067 32.0942 24.96L29.4342 16.14C29.3409 15.82 29.2476 15.6133 29.1542 15.52C29.0742 15.4267 28.9409 15.36 28.7542 15.32L28.4542 15.26C28.2809 15.22 28.1942 15.1333 28.1942 15C28.1942 14.8667 28.2876 14.8 28.4742 14.8H31.7742C31.9609 14.8 32.0542 14.8667 32.0542 15C32.0542 15.1467 31.9676 15.2333 31.7942 15.26L31.4742 15.3C31.1542 15.34 30.9542 15.42 30.8742 15.54C30.7942 15.6467 30.7942 15.8467 30.8742 16.14L32.5342 21.92C32.5742 22.0667 32.6409 22.14 32.7342 22.14C32.8276 22.14 32.8942 22.0667 32.9342 21.92L34.5542 16.5C34.6609 16.14 34.6876 15.8733 34.6342 15.7C34.5942 15.5133 34.4076 15.3933 34.0742 15.34L33.6542 15.26C33.4809 15.22 33.3942 15.1333 33.3942 15C33.3942 14.8667 33.4876 14.8 33.6742 14.8H36.2142C36.4009 14.8 36.4942 14.8733 36.4942 15.02C36.4942 15.1533 36.4142 15.2467 36.2542 15.3L36.0742 15.36C35.8742 15.4267 35.7009 15.5467 35.5542 15.72C35.4209 15.8933 35.2876 16.1933 35.1542 16.62L32.6142 24.96C32.5609 25.1067 32.4742 25.18 32.3542 25.18ZM39.8314 25.18C39.1914 25.18 38.6181 24.9667 38.1114 24.54C37.6047 24.1133 37.1981 23.5133 36.8914 22.74C36.5981 21.9533 36.4514 21.0467 36.4514 20.02C36.4514 18.9667 36.6047 18.04 36.9114 17.24C37.2181 16.44 37.6381 15.8133 38.1714 15.36C38.7047 14.9067 39.2981 14.68 39.9514 14.68C40.7381 14.68 41.3714 15.0067 41.8514 15.66C42.3447 16.3 42.5914 17.3467 42.5914 18.8C42.5914 19.24 42.4247 19.46 42.0914 19.46H38.2914C38.0247 19.46 37.8914 19.6133 37.8914 19.92C37.8914 21.3333 38.0981 22.3933 38.5114 23.1C38.9247 23.8067 39.4514 24.16 40.0914 24.16C40.5981 24.16 41.0114 23.98 41.3314 23.62C41.6514 23.26 41.9114 22.6533 42.1114 21.8C42.1514 21.6533 42.2381 21.58 42.3714 21.58C42.5314 21.58 42.5914 21.7133 42.5514 21.98C42.3381 23.1667 41.9981 24 41.5314 24.48C41.0647 24.9467 40.4981 25.18 39.8314 25.18ZM38.2314 18.96H40.2514C40.8914 18.96 41.2114 18.6267 41.2114 17.96C41.2114 17.0933 41.1047 16.4133 40.8914 15.92C40.6781 15.4267 40.3581 15.18 39.9314 15.18C39.4114 15.18 38.9714 15.48 38.6114 16.08C38.2647 16.68 38.0381 17.5333 37.9314 18.64C37.9047 18.8533 38.0047 18.96 38.2314 18.96ZM43.6008 25C43.4008 25 43.3008 24.9267 43.3008 24.78C43.3008 24.66 43.3874 24.58 43.5608 24.54L43.8008 24.5C44.0808 24.4467 44.2608 24.3667 44.3408 24.26C44.4341 24.14 44.4808 23.94 44.4808 23.66V16.94C44.4808 16.7 44.4408 16.54 44.3608 16.46C44.2941 16.3667 44.1674 16.3067 43.9808 16.28L43.5608 16.22C43.3874 16.2067 43.3008 16.1333 43.3008 16C43.3008 15.8933 43.4074 15.82 43.6208 15.78C44.0341 15.7133 44.3474 15.6067 44.5608 15.46C44.7874 15.3133 45.0208 15.1333 45.2608 14.92C45.3808 14.8 45.4808 14.74 45.5608 14.74C45.6808 14.74 45.7408 14.82 45.7408 14.98V15.88C45.7408 16 45.7808 16.08 45.8608 16.12C45.9541 16.1467 46.0541 16.1067 46.1608 16C46.6941 15.4933 47.1608 15.1467 47.5608 14.96C47.9741 14.7733 48.4074 14.68 48.8608 14.68C49.4608 14.68 49.9408 14.8933 50.3008 15.32C50.6608 15.7333 50.8408 16.3467 50.8408 17.16V23.66C50.8408 23.94 50.8808 24.14 50.9608 24.26C51.0541 24.3667 51.2408 24.44 51.5208 24.48L51.9608 24.54C52.1074 24.5667 52.1808 24.6467 52.1808 24.78C52.1808 24.9267 52.1008 25 51.9408 25H48.5808C48.3941 25 48.3008 24.9267 48.3008 24.78C48.3008 24.6467 48.3741 24.5667 48.5208 24.54L48.8008 24.5C49.0808 24.46 49.2608 24.38 49.3408 24.26C49.4341 24.14 49.4808 23.94 49.4808 23.66V17.38C49.4808 16.7267 49.3608 16.2667 49.1208 16C48.8808 15.7333 48.5408 15.6 48.1008 15.6C47.6741 15.6 47.2874 15.7267 46.9408 15.98C46.6074 16.22 46.3408 16.5467 46.1408 16.96C45.9408 17.36 45.8408 17.8067 45.8408 18.3V23.66C45.8408 23.94 45.8808 24.14 45.9608 24.26C46.0541 24.38 46.2408 24.4533 46.5208 24.48L47.0608 24.54C47.2074 24.5667 47.2808 24.64 47.2808 24.76C47.2808 24.92 47.1808 25 46.9808 25H43.6008ZM54.6953 25.18C54.1353 25.18 53.6753 25.0067 53.3153 24.66C52.9553 24.3 52.7753 23.8267 52.7753 23.24C52.7753 22.6667 52.9553 22.1267 53.3153 21.62C53.6753 21.1 54.1686 20.6333 54.7953 20.22C55.422 19.8067 56.1353 19.4733 56.9353 19.22C57.1086 19.1667 57.1953 19.0533 57.1953 18.88V17.06C57.1953 16.42 57.0953 15.9667 56.8953 15.7C56.6953 15.42 56.422 15.28 56.0753 15.28C55.742 15.28 55.4353 15.4333 55.1553 15.74C54.8886 16.0333 54.6953 16.5333 54.5753 17.24C54.5086 17.6667 54.362 17.98 54.1353 18.18C53.922 18.3667 53.702 18.46 53.4753 18.46C53.102 18.46 52.9153 18.2733 52.9153 17.9C52.9153 17.5133 53.022 17.1333 53.2353 16.76C53.462 16.3733 53.7553 16.0267 54.1153 15.72C54.4753 15.4 54.8686 15.1467 55.2953 14.96C55.722 14.7733 56.1486 14.68 56.5753 14.68C57.8953 14.68 58.5553 15.4467 58.5553 16.98V23.1C58.5553 23.66 58.6953 23.94 58.9753 23.94C59.1486 23.94 59.3086 23.8267 59.4553 23.6C59.602 23.36 59.6753 22.96 59.6753 22.4C59.6753 22.1867 59.762 22.08 59.9353 22.08C60.0953 22.08 60.1753 22.1933 60.1753 22.42C60.1753 23.3933 60.002 24.1 59.6553 24.54C59.322 24.9667 58.942 25.18 58.5153 25.18C58.1953 25.18 57.942 25.0533 57.7553 24.8C57.5686 24.5333 57.442 24.22 57.3753 23.86C57.362 23.7267 57.302 23.66 57.1953 23.66C57.102 23.6467 57.0086 23.7067 56.9153 23.84C56.5953 24.28 56.2686 24.6133 55.9353 24.84C55.602 25.0667 55.1886 25.18 54.6953 25.18ZM55.2353 24.26C55.582 24.26 55.902 24.14 56.1953 23.9C56.4886 23.6467 56.7286 23.3133 56.9153 22.9C57.102 22.4867 57.1953 22.02 57.1953 21.5V20.04C57.1953 19.7867 57.0553 19.7133 56.7753 19.82C55.962 20.1133 55.3286 20.52 54.8753 21.04C54.4353 21.5467 54.2153 22.16 54.2153 22.88C54.2153 23.8 54.5553 24.26 55.2353 24.26ZM62.5836 25.18C62.0236 25.18 61.5636 25.0067 61.2036 24.66C60.8436 24.3 60.6636 23.8267 60.6636 23.24C60.6636 22.6667 60.8436 22.1267 61.2036 21.62C61.5636 21.1 62.0569 20.6333 62.6836 20.22C63.3103 19.8067 64.0236 19.4733 64.8236 19.22C64.9969 19.1667 65.0836 19.0533 65.0836 18.88V17.06C65.0836 16.42 64.9836 15.9667 64.7836 15.7C64.5836 15.42 64.3103 15.28 63.9636 15.28C63.6303 15.28 63.3236 15.4333 63.0436 15.74C62.7769 16.0333 62.5836 16.5333 62.4636 17.24C62.3969 17.6667 62.2503 17.98 62.0236 18.18C61.8103 18.3667 61.5903 18.46 61.3636 18.46C60.9903 18.46 60.8036 18.2733 60.8036 17.9C60.8036 17.5133 60.9103 17.1333 61.1236 16.76C61.3503 16.3733 61.6436 16.0267 62.0036 15.72C62.3636 15.4 62.7569 15.1467 63.1836 14.96C63.6103 14.7733 64.0369 14.68 64.4636 14.68C65.7836 14.68 66.4436 15.4467 66.4436 16.98V23.1C66.4436 23.66 66.5836 23.94 66.8636 23.94C67.0369 23.94 67.1969 23.8267 67.3436 23.6C67.4903 23.36 67.5636 22.96 67.5636 22.4C67.5636 22.1867 67.6503 22.08 67.8236 22.08C67.9836 22.08 68.0636 22.1933 68.0636 22.42C68.0636 23.3933 67.8903 24.1 67.5436 24.54C67.2103 24.9667 66.8303 25.18 66.4036 25.18C66.0836 25.18 65.8303 25.0533 65.6436 24.8C65.4569 24.5333 65.3303 24.22 65.2636 23.86C65.2503 23.7267 65.1903 23.66 65.0836 23.66C64.9903 23.6467 64.8969 23.7067 64.8036 23.84C64.4836 24.28 64.1569 24.6133 63.8236 24.84C63.4903 25.0667 63.0769 25.18 62.5836 25.18ZM63.1236 24.26C63.4703 24.26 63.7903 24.14 64.0836 23.9C64.3769 23.6467 64.6169 23.3133 64.8036 22.9C64.9903 22.4867 65.0836 22.02 65.0836 21.5V20.04C65.0836 19.7867 64.9436 19.7133 64.6636 19.82C63.8503 20.1133 63.2169 20.52 62.7636 21.04C62.3236 21.5467 62.1036 22.16 62.1036 22.88C62.1036 23.8 62.4436 24.26 63.1236 24.26ZM70.8947 25.18C70.428 25.18 70.0414 25.02 69.7347 24.7C69.4414 24.3667 69.2947 23.8267 69.2947 23.08V15.6C69.2947 15.44 69.2147 15.36 69.0547 15.36H68.4747C68.2614 15.36 68.1547 15.28 68.1547 15.12C68.1547 15.0133 68.2147 14.92 68.3347 14.84C68.7747 14.5333 69.128 14.2067 69.3947 13.86C69.6614 13.5 69.8947 13.0133 70.0947 12.4C70.188 12.12 70.3014 11.98 70.4347 11.98C70.5814 11.98 70.6547 12.0867 70.6547 12.3V14.52C70.6547 14.7067 70.748 14.8 70.9347 14.8H72.2347C72.448 14.8 72.5547 14.8933 72.5547 15.08C72.5547 15.2667 72.448 15.36 72.2347 15.36H70.9347C70.748 15.36 70.6547 15.4533 70.6547 15.64V23.1C70.6547 23.3933 70.7014 23.6267 70.7947 23.8C70.888 23.96 71.0614 24.04 71.3147 24.04C71.5947 24.04 71.8214 23.9 71.9947 23.62C72.1814 23.34 72.3014 22.8867 72.3547 22.26C72.3814 22.0733 72.468 21.98 72.6147 21.98C72.7747 21.98 72.8547 22.08 72.8547 22.28C72.8147 23.3067 72.6014 24.0467 72.2147 24.5C71.8414 24.9533 71.4014 25.18 70.8947 25.18ZM75.3105 12.9C75.0305 12.9 74.7905 12.8 74.5905 12.6C74.4038 12.4 74.3105 12.1467 74.3105 11.84C74.3105 11.5333 74.4038 11.2867 74.5905 11.1C74.7905 10.9 75.0305 10.8 75.3105 10.8C75.5905 10.8 75.8238 10.9 76.0105 11.1C76.1971 11.2867 76.2905 11.5333 76.2905 11.84C76.2905 12.1467 76.1971 12.4 76.0105 12.6C75.8238 12.8 75.5905 12.9 75.3105 12.9ZM73.6305 25C73.4305 25 73.3305 24.9267 73.3305 24.78C73.3305 24.66 73.4171 24.58 73.5905 24.54L73.8305 24.5C74.1638 24.4467 74.3771 24.3667 74.4705 24.26C74.5638 24.14 74.6105 23.94 74.6105 23.66V16.94C74.6105 16.7 74.5705 16.54 74.4905 16.46C74.4238 16.3667 74.2971 16.3067 74.1105 16.28L73.6905 16.22C73.5171 16.2067 73.4305 16.1333 73.4305 16C73.4305 15.8933 73.5371 15.82 73.7505 15.78C74.1638 15.7133 74.4971 15.6067 74.7505 15.46C75.0038 15.3133 75.2505 15.1333 75.4905 14.92C75.6105 14.8 75.7105 14.74 75.7905 14.74C75.9105 14.74 75.9705 14.82 75.9705 14.98V23.66C75.9705 23.94 76.0105 24.14 76.0905 24.26C76.1705 24.38 76.3238 24.4533 76.5505 24.48L77.0505 24.54C77.1971 24.5667 77.2705 24.64 77.2705 24.76C77.2705 24.92 77.1705 25 76.9705 25H73.6305ZM79.6636 12.9C79.3836 12.9 79.1436 12.8 78.9436 12.6C78.7569 12.4 78.6636 12.1467 78.6636 11.84C78.6636 11.5333 78.7569 11.2867 78.9436 11.1C79.1436 10.9 79.3836 10.8 79.6636 10.8C79.9436 10.8 80.1769 10.9 80.3636 11.1C80.5503 11.2867 80.6436 11.5333 80.6436 11.84C80.6436 12.1467 80.5503 12.4 80.3636 12.6C80.1769 12.8 79.9436 12.9 79.6636 12.9ZM77.9836 25C77.7836 25 77.6836 24.9267 77.6836 24.78C77.6836 24.66 77.7703 24.58 77.9436 24.54L78.1836 24.5C78.5169 24.4467 78.7303 24.3667 78.8236 24.26C78.9169 24.14 78.9636 23.94 78.9636 23.66V16.94C78.9636 16.7 78.9236 16.54 78.8436 16.46C78.7769 16.3667 78.6503 16.3067 78.4636 16.28L78.0436 16.22C77.8703 16.2067 77.7836 16.1333 77.7836 16C77.7836 15.8933 77.8903 15.82 78.1036 15.78C78.5169 15.7133 78.8503 15.6067 79.1036 15.46C79.3569 15.3133 79.6036 15.1333 79.8436 14.92C79.9636 14.8 80.0636 14.74 80.1436 14.74C80.2636 14.74 80.3236 14.82 80.3236 14.98V23.66C80.3236 23.94 80.3636 24.14 80.4436 24.26C80.5236 24.38 80.6769 24.4533 80.9036 24.48L81.4036 24.54C81.5503 24.5667 81.6236 24.64 81.6236 24.76C81.6236 24.92 81.5236 25 81.3236 25H77.9836ZM85.7152 25C85.5152 25 85.4152 24.9267 85.4152 24.78C85.4152 24.66 85.5018 24.58 85.6752 24.54L86.1352 24.46C86.4152 24.4067 86.5952 24.3333 86.6752 24.24C86.7685 24.1467 86.8152 23.96 86.8152 23.68V11.92C86.8152 11.64 86.7685 11.4533 86.6752 11.36C86.5952 11.2667 86.4152 11.1933 86.1352 11.14L85.6752 11.06C85.5018 11.02 85.4152 10.94 85.4152 10.82C85.4152 10.6733 85.5152 10.6 85.7152 10.6H89.8952C90.6818 10.6 91.3752 10.7733 91.9752 11.12C92.5752 11.4533 93.0418 11.92 93.3752 12.52C93.7085 13.12 93.8752 13.8133 93.8752 14.6C93.8752 15.36 93.7085 16.0333 93.3752 16.62C93.0418 17.2067 92.5818 17.6667 91.9952 18C91.4085 18.32 90.7285 18.48 89.9552 18.48H88.5152C88.3285 18.48 88.2352 18.5733 88.2352 18.76V23.6C88.2352 23.88 88.2885 24.0733 88.3952 24.18C88.5018 24.2733 88.7418 24.3533 89.1152 24.42L89.8552 24.54C90.0018 24.5667 90.0752 24.64 90.0752 24.76C90.0752 24.92 89.9752 25 89.7752 25H85.7152ZM88.2352 16.88C88.2352 17.6133 88.6818 17.98 89.5752 17.98C90.4418 17.98 91.1218 17.6733 91.6152 17.06C92.1218 16.4467 92.3752 15.6067 92.3752 14.54C92.3752 13.4467 92.1218 12.6 91.6152 12C91.1085 11.4 90.3885 11.1 89.4552 11.1C88.6418 11.1 88.2352 11.3667 88.2352 11.9V16.88ZM94.6516 25C94.4916 25 94.4116 24.9267 94.4116 24.78C94.4116 24.6467 94.4849 24.5667 94.6316 24.54L94.9116 24.5C95.1916 24.46 95.3982 24.38 95.5316 24.26C95.6649 24.14 95.7316 23.94 95.7316 23.66V12.2C95.7316 11.96 95.6916 11.7933 95.6116 11.7C95.5449 11.6067 95.4182 11.5533 95.2316 11.54L94.7716 11.48C94.6249 11.4533 94.5516 11.3733 94.5516 11.24C94.5516 11.1067 94.6249 11.0267 94.7716 11C95.1449 10.92 95.4649 10.8267 95.7316 10.72C95.9982 10.6133 96.2182 10.5067 96.3916 10.4C96.6049 10.2667 96.7649 10.2 96.8716 10.2C97.0182 10.2 97.0916 10.3067 97.0916 10.52V23.66C97.0916 23.94 97.1316 24.14 97.2116 24.26C97.3049 24.3667 97.4916 24.44 97.7716 24.48L98.2316 24.54C98.3782 24.5667 98.4516 24.6467 98.4516 24.78C98.4516 24.9267 98.3716 25 98.2116 25H94.6516ZM100.946 25.18C100.386 25.18 99.9261 25.0067 99.5661 24.66C99.2061 24.3 99.0261 23.8267 99.0261 23.24C99.0261 22.6667 99.2061 22.1267 99.5661 21.62C99.9261 21.1 100.419 20.6333 101.046 20.22C101.673 19.8067 102.386 19.4733 103.186 19.22C103.359 19.1667 103.446 19.0533 103.446 18.88V17.06C103.446 16.42 103.346 15.9667 103.146 15.7C102.946 15.42 102.673 15.28 102.326 15.28C101.993 15.28 101.686 15.4333 101.406 15.74C101.139 16.0333 100.946 16.5333 100.826 17.24C100.759 17.6667 100.613 17.98 100.386 18.18C100.173 18.3667 99.9528 18.46 99.7261 18.46C99.3528 18.46 99.1661 18.2733 99.1661 17.9C99.1661 17.5133 99.2728 17.1333 99.4861 16.76C99.7128 16.3733 100.006 16.0267 100.366 15.72C100.726 15.4 101.119 15.1467 101.546 14.96C101.973 14.7733 102.399 14.68 102.826 14.68C104.146 14.68 104.806 15.4467 104.806 16.98V23.1C104.806 23.66 104.946 23.94 105.226 23.94C105.399 23.94 105.559 23.8267 105.706 23.6C105.853 23.36 105.926 22.96 105.926 22.4C105.926 22.1867 106.013 22.08 106.186 22.08C106.346 22.08 106.426 22.1933 106.426 22.42C106.426 23.3933 106.253 24.1 105.906 24.54C105.573 24.9667 105.193 25.18 104.766 25.18C104.446 25.18 104.193 25.0533 104.006 24.8C103.819 24.5333 103.693 24.22 103.626 23.86C103.613 23.7267 103.553 23.66 103.446 23.66C103.353 23.6467 103.259 23.7067 103.166 23.84C102.846 24.28 102.519 24.6133 102.186 24.84C101.853 25.0667 101.439 25.18 100.946 25.18ZM101.486 24.26C101.833 24.26 102.153 24.14 102.446 23.9C102.739 23.6467 102.979 23.3133 103.166 22.9C103.353 22.4867 103.446 22.02 103.446 21.5V20.04C103.446 19.7867 103.306 19.7133 103.026 19.82C102.213 20.1133 101.579 20.52 101.126 21.04C100.686 21.5467 100.466 22.16 100.466 22.88C100.466 23.8 100.806 24.26 101.486 24.26ZM107.034 25C106.834 25 106.734 24.9267 106.734 24.78C106.734 24.66 106.821 24.58 106.994 24.54L107.234 24.5C107.514 24.4467 107.694 24.3667 107.774 24.26C107.868 24.14 107.914 23.94 107.914 23.66V16.94C107.914 16.7 107.874 16.54 107.794 16.46C107.728 16.3667 107.601 16.3067 107.414 16.28L106.994 16.22C106.821 16.2067 106.734 16.1333 106.734 16C106.734 15.8933 106.841 15.82 107.054 15.78C107.468 15.7133 107.781 15.6067 107.994 15.46C108.221 15.3133 108.454 15.1333 108.694 14.92C108.814 14.8 108.914 14.74 108.994 14.74C109.114 14.74 109.174 14.82 109.174 14.98V15.88C109.174 16 109.214 16.08 109.294 16.12C109.388 16.1467 109.488 16.1067 109.594 16C110.128 15.4933 110.594 15.1467 110.994 14.96C111.408 14.7733 111.841 14.68 112.294 14.68C112.894 14.68 113.374 14.8933 113.734 15.32C114.094 15.7333 114.274 16.3467 114.274 17.16V23.66C114.274 23.94 114.314 24.14 114.394 24.26C114.488 24.3667 114.674 24.44 114.954 24.48L115.394 24.54C115.541 24.5667 115.614 24.6467 115.614 24.78C115.614 24.9267 115.534 25 115.374 25H112.014C111.828 25 111.734 24.9267 111.734 24.78C111.734 24.6467 111.808 24.5667 111.954 24.54L112.234 24.5C112.514 24.46 112.694 24.38 112.774 24.26C112.868 24.14 112.914 23.94 112.914 23.66V17.38C112.914 16.7267 112.794 16.2667 112.554 16C112.314 15.7333 111.974 15.6 111.534 15.6C111.108 15.6 110.721 15.7267 110.374 15.98C110.041 16.22 109.774 16.5467 109.574 16.96C109.374 17.36 109.274 17.8067 109.274 18.3V23.66C109.274 23.94 109.314 24.14 109.394 24.26C109.488 24.38 109.674 24.4533 109.954 24.48L110.494 24.54C110.641 24.5667 110.714 24.64 110.714 24.76C110.714 24.92 110.614 25 110.414 25H107.034ZM116.329 25C116.129 25 116.029 24.9267 116.029 24.78C116.029 24.66 116.116 24.58 116.289 24.54L116.529 24.5C116.809 24.4467 116.989 24.3667 117.069 24.26C117.162 24.14 117.209 23.94 117.209 23.66V16.94C117.209 16.7 117.169 16.54 117.089 16.46C117.022 16.3667 116.896 16.3067 116.709 16.28L116.289 16.22C116.116 16.2067 116.029 16.1333 116.029 16C116.029 15.8933 116.136 15.82 116.349 15.78C116.762 15.7133 117.076 15.6067 117.289 15.46C117.516 15.3133 117.749 15.1333 117.989 14.92C118.109 14.8 118.209 14.74 118.289 14.74C118.409 14.74 118.469 14.82 118.469 14.98V15.88C118.469 16 118.509 16.08 118.589 16.12C118.682 16.1467 118.782 16.1067 118.889 16C119.422 15.4933 119.889 15.1467 120.289 14.96C120.702 14.7733 121.136 14.68 121.589 14.68C122.189 14.68 122.669 14.8933 123.029 15.32C123.389 15.7333 123.569 16.3467 123.569 17.16V23.66C123.569 23.94 123.609 24.14 123.689 24.26C123.782 24.3667 123.969 24.44 124.249 24.48L124.689 24.54C124.836 24.5667 124.909 24.6467 124.909 24.78C124.909 24.9267 124.829 25 124.669 25H121.309C121.122 25 121.029 24.9267 121.029 24.78C121.029 24.6467 121.102 24.5667 121.249 24.54L121.529 24.5C121.809 24.46 121.989 24.38 122.069 24.26C122.162 24.14 122.209 23.94 122.209 23.66V17.38C122.209 16.7267 122.089 16.2667 121.849 16C121.609 15.7333 121.269 15.6 120.829 15.6C120.402 15.6 120.016 15.7267 119.669 15.98C119.336 16.22 119.069 16.5467 118.869 16.96C118.669 17.36 118.569 17.8067 118.569 18.3V23.66C118.569 23.94 118.609 24.14 118.689 24.26C118.782 24.38 118.969 24.4533 119.249 24.48L119.789 24.54C119.936 24.5667 120.009 24.64 120.009 24.76C120.009 24.92 119.909 25 119.709 25H116.329ZM128.863 25.18C128.223 25.18 127.65 24.9667 127.143 24.54C126.637 24.1133 126.23 23.5133 125.923 22.74C125.63 21.9533 125.483 21.0467 125.483 20.02C125.483 18.9667 125.637 18.04 125.943 17.24C126.25 16.44 126.67 15.8133 127.203 15.36C127.737 14.9067 128.33 14.68 128.983 14.68C129.77 14.68 130.403 15.0067 130.883 15.66C131.377 16.3 131.623 17.3467 131.623 18.8C131.623 19.24 131.457 19.46 131.123 19.46H127.323C127.057 19.46 126.923 19.6133 126.923 19.92C126.923 21.3333 127.13 22.3933 127.543 23.1C127.957 23.8067 128.483 24.16 129.123 24.16C129.63 24.16 130.043 23.98 130.363 23.62C130.683 23.26 130.943 22.6533 131.143 21.8C131.183 21.6533 131.27 21.58 131.403 21.58C131.563 21.58 131.623 21.7133 131.583 21.98C131.37 23.1667 131.03 24 130.563 24.48C130.097 24.9467 129.53 25.18 128.863 25.18ZM127.263 18.96H129.283C129.923 18.96 130.243 18.6267 130.243 17.96C130.243 17.0933 130.137 16.4133 129.923 15.92C129.71 15.4267 129.39 15.18 128.963 15.18C128.443 15.18 128.003 15.48 127.643 16.08C127.297 16.68 127.07 17.5333 126.963 18.64C126.937 18.8533 127.037 18.96 127.263 18.96ZM135.113 16.08C135.659 15.1467 136.319 14.68 137.093 14.68C137.533 14.68 137.859 14.8133 138.073 15.08C138.286 15.3333 138.393 15.62 138.393 15.94C138.393 16.1933 138.326 16.4 138.193 16.56C138.073 16.72 137.879 16.8 137.613 16.8C137.399 16.8 137.239 16.7533 137.133 16.66C137.039 16.5533 136.959 16.4333 136.893 16.3C136.839 16.1667 136.773 16.0533 136.693 15.96C136.613 15.8533 136.479 15.8 136.293 15.8C136.053 15.8 135.826 15.9467 135.613 16.24C135.399 16.52 135.219 16.9 135.073 17.38C134.939 17.86 134.873 18.4067 134.873 19.02V23.66C134.873 23.94 134.913 24.14 134.993 24.26C135.086 24.38 135.273 24.4533 135.553 24.48L136.093 24.54C136.239 24.5667 136.313 24.64 136.313 24.76C136.313 24.92 136.213 25 136.013 25H132.633C132.433 25 132.333 24.9267 132.333 24.78C132.333 24.66 132.419 24.58 132.593 24.54L132.833 24.5C133.113 24.4467 133.293 24.3667 133.373 24.26C133.466 24.14 133.513 23.94 133.513 23.66V16.94C133.513 16.7 133.473 16.54 133.393 16.46C133.326 16.3667 133.199 16.3067 133.013 16.28L132.593 16.22C132.419 16.2067 132.333 16.1333 132.333 16C132.333 15.8933 132.439 15.82 132.653 15.78C133.066 15.7133 133.379 15.6067 133.593 15.46C133.819 15.3133 134.053 15.1333 134.293 14.92C134.413 14.8 134.513 14.74 134.593 14.74C134.713 14.74 134.773 14.82 134.773 14.98V16.06C134.773 16.1533 134.813 16.2133 134.893 16.24C134.973 16.2533 135.046 16.2 135.113 16.08ZM140.92 25.18C140.613 25.18 140.287 25.14 139.94 25.06C139.593 24.9933 139.313 24.9067 139.1 24.8C138.98 24.7333 138.92 24.62 138.92 24.46L138.86 22.22C138.86 21.9933 138.947 21.88 139.12 21.88C139.267 21.88 139.367 21.9867 139.42 22.2C139.647 23.1467 139.92 23.7933 140.24 24.14C140.573 24.4867 140.973 24.66 141.44 24.66C141.827 24.66 142.147 24.5133 142.4 24.22C142.653 23.9133 142.78 23.4933 142.78 22.96C142.78 22.4267 142.633 21.9533 142.34 21.54C142.047 21.1267 141.553 20.6733 140.86 20.18C140.167 19.7133 139.66 19.2467 139.34 18.78C139.02 18.3 138.86 17.78 138.86 17.22C138.86 16.46 139.127 15.8467 139.66 15.38C140.193 14.9133 140.9 14.68 141.78 14.68C142.047 14.68 142.307 14.7133 142.56 14.78C142.813 14.8333 143.04 14.9267 143.24 15.06C143.36 15.14 143.42 15.2467 143.42 15.38L143.46 17.58C143.46 17.78 143.38 17.88 143.22 17.88C143.127 17.88 143.06 17.8533 143.02 17.8C142.98 17.7333 142.947 17.6533 142.92 17.56C142.653 16.6933 142.387 16.0933 142.12 15.76C141.853 15.4133 141.527 15.24 141.14 15.24C140.793 15.24 140.507 15.36 140.28 15.6C140.053 15.84 139.94 16.14 139.94 16.5C139.94 16.9667 140.08 17.3733 140.36 17.72C140.64 18.0667 141.147 18.4933 141.88 19C142.547 19.48 143.047 20 143.38 20.56C143.727 21.1067 143.9 21.7067 143.9 22.36C143.9 23.2133 143.627 23.9 143.08 24.42C142.533 24.9267 141.813 25.18 140.92 25.18Z" fill="white" fill-opacity="0.9"/>
<defs>
<linearGradient id="paint0_linear_50_524" x1="10.5599" y1="18.08" x2="0.319824" y2="20.8408" gradientUnits="userSpaceOnUse">
<stop stop-color="#6B2F6C"/>
<stop offset="1" stop-color="#290935"/>
</linearGradient>
</defs>
</svg>
